#!OML:ASF H:\Terrain\Patient Classification 1\Walking\steve\steve.ASF
:FULLY-SPECIFIED
:DEGREES
216
root 9.43308 16.3982 21.3908 4.38844 -0.919349 -1.80624
lowerback 1.56226 2.00113 1.44084
upperback -1.80688 2.77948 2.64373
thorax -2.79541 1.38732 1.79912
lowerneck -10.127 -1.9496 -2.144
upperneck 17.9499 -2.28241 -0.0468545
head 7.1916 -1.23894 0.132444
rclavicle -1.35049e-014 -2.22639e-014
rhumerus -43.8812 -27.9735 -63.1733
rradius 21.0667
rwrist 19.4558
rhand -20.0552 -41.1379
rfingers 7.12502
rthumb 6.28648 -71.0246
lclavicle -1.35049e-014 -2.22639e-014
lhumerus -29.2169 -8.61788 93.657
lradius 35.0953
lwrist 18.1938
lhand -24.9524 -16.2927
lfingers 7.12502
lthumb 1.55754 13.6813
rfemur -24.8137 2.91926 27.5788
rtibia 43.2871
rfoot -21.429 9.53351
rtoes -5.54866
lfemur -20.6748 5.35017 -18.7194
ltibia 71.7224
lfoot -5.36446 2.83395
ltoes -15.6826
217
root 9.43476 16.4146 21.6249 4.44391 -1.08178 -2.29997
lowerback 1.45425 2.07981 1.96475
upperback -1.94239 2.90166 2.71274
thorax -2.85528 1.43779 1.57451
lowerneck -10.0464 -1.96121 -2.14491
upperneck 18.4344 -2.30981 0.00436455
head 7.33589 -1.24924 0.145032
rclavicle -4.21051e-014 -1.51076e-014
rhumerus -41.8809 -25.6603 -66.1169
rradius 21.9681
rwrist 16.653
rhand -21.6336 -41.3288
rfingers 7.12502
rthumb 4.76261 -71.2553
lclavicle -4.21051e-014 -1.51076e-014
lhumerus -30.2117 -7.51126 93.5287
lradius 33.1755
lwrist 16.5317
lhand -25.1337 -15.5554
lfingers 7.12502
lthumb 1.38242 14.4199
rfemur -23.4796 3.15245 28.1005
rtibia 42.6063
rfoot -21.8336 9.94251
rtoes -3.9659
lfemur -22.5205 5.63858 -18.2778
ltibia 71.5286
lfoot -6.39764 2.2703
ltoes -14.5574
218
root 9.44311 16.4279 21.8711 4.17775 -1.14942 -2.10072
lowerback 1.53627 2.12049 2.01131
upperback -1.98492 2.95576 2.48846
thorax -2.93151 1.46037 1.31177
lowerneck -10.0394 -2.00594 -2.4354
upperneck 19.0191 -2.42703 0.545564
head 7.53796 -1.2779 0.356045
rclavicle 1.30515e-014 2.38542e-015
rhumerus -40.2897 -22.9932 -69.0794
rradius 23.3707
rwrist 13.5657
rhand -21.8639 -42.2736
rfingers 7.12502
rthumb 4.5402 -72.205
lclavicle 1.30515e-014 2.38542e-015
lhumerus -31.2883 -6.68128 93.2342
lradius 31.1854
lwrist 15.3341
lhand -24.7923 -15.1293
lfingers 7.12502
lthumb 1.71217 14.8435
rfemur -21.7818 2.98273 27.8462
rtibia 42.0044
rfoot -22.0628 10.3619
rtoes -0.404247
lfemur -23.6453 5.66668 -18.7433
ltibia 70.8547
lfoot -8.27817 2.04666
ltoes -14.0539
219
root 9.44537 16.429 22.1134 3.95599 -1.334 -2.13402
lowerback 1.52865 2.19342 2.11678
upperback -1.95614 3.05186 2.3865
thorax -2.88728 1.50499 1.14538
lowerneck -9.88802 -2.02355 -2.71795
upperneck 19.2943 -2.4928 0.979168
head 7.61166 -1.29057 0.539253
rclavicle 4.21175e-015 6.36111e-015
rhumerus -38.8178 -21.4482 -71.1137
rradius 24.4425
rwrist 11.281
rhand -22.7959 -41.2273
rfingers 7.12502
rthumb 3.64023 -71.1759
lclavicle 4.21175e-015 6.36111e-015
lhumerus -32.2825 -5.80939 92.8489
lradius 29.3846
lwrist 14.3695
lhand -24.0583 -14.8892
lfingers 7.12502
lthumb 2.42103 15.0768
rfemur -20.3279 2.80793 27.9324
rtibia 41.4915
rfoot -22.3336 10.1791
rtoes 0.188747
lfemur -24.7435 5.9544 -18.9623
ltibia 69.9784
lfoot -10.1139 2.0449
ltoes -14.4455
220
root 9.44941 16.4315 22.354 3.85096 -1.52676 -2.45016
lowerback 1.41412 2.2703 2.49796
upperback -1.93836 3.15971 2.39912
thorax -2.78575 1.55152 0.947476
lowerneck -9.40691 -2.01321 -2.79948
upperneck 19.2488 -2.48296 1.00832
head 7.5117 -1.29076 0.568201
rclavicle -1.16755e-014 -1.03368e-014
rhumerus -37.1962 -20.4341 -72.6509
rradius 25.1324
rwrist 9.78249
rhand -23.5674 -39.2211
rfingers 7.12502
rthumb 2.89517 -69.1812
lclavicle -1.16755e-014 -1.03368e-014
lhumerus -33.1173 -4.60537 92.3208
lradius 27.5282
lwrist 12.8863
lhand -23.4636 -14.5868
lfingers 7.12502
lthumb 2.99535 15.3719
rfemur -19.033 2.63088 28.3267
rtibia 41.0074
rfoot -22.8924 9.99037
rtoes 0.35549
lfemur -25.9734 6.27307 -18.8413
ltibia 69.0318
lfoot -10.7955 1.99351
ltoes -17.0371
221
root 9.45823 16.4329 22.5921 3.95123 -1.77994 -2.80663
lowerback 1.28273 2.38071 3.0285
upperback -2.04487 3.31788 2.3645
thorax -2.79053 1.61804 0.615131
lowerneck -9.39638 -2.00823 -2.56862
upperneck 19.6651 -2.4813 0.819615
head 7.64092 -1.29134 0.467145
rclavicle -2.6042e-014 -1.66979e-014
rhumerus -35.9821 -17.9757 -74.7377
rradius 26.8432
rwrist 7.28358
rhand -23.8135 -38.5145
rfingers 7.12502
rthumb 2.6575 -68.4777
lclavicle -2.6042e-014 -1.66979e-014
lhumerus -33.9018 -3.05497 91.5485
lradius 25.4249
lwrist 10.865
lhand -23.0696 -13.9441
lfingers 7.12502
lthumb 3.37588 16.0089
rfemur -17.9183 2.51002 28.7199
rtibia 40.477
rfoot -23.3879 10.3298
rtoes 1.31596
lfemur -27.5115 6.58553 -18.7015
ltibia 68.003
lfoot -11.5247 2.14866
ltoes -20.5524
222
root 9.46679 16.4313 22.8221 4.06813 -2.20188 -3.10086
lowerback 1.40819 2.51367 3.43078
upperback -2.23078 3.51905 2.32021
thorax -3.02549 1.70438 0.329185
lowerneck -10.0401 -1.97511 -2.32695
upperneck 20.5741 -2.45488 0.750933
head 8.05394 -1.26623 0.39738
rclavicle 4.68402e-014 3.97569e-016
rhumerus -35.2694 -14.4007 -77.1952
rradius 29.2844
rwrist 2.93324
rhand -25.5018 -37.842
rfingers 7.12502
rthumb 1.02688 -67.8193
lclavicle 4.68402e-014 3.97569e-016
lhumerus -34.8773 -1.32284 90.6149
lradius 23.5052
lwrist 8.73715
lhand -22.8691 -13.0989
lfingers 7.12502
lthumb 3.56954 16.851
rfemur -16.8541 2.51241 29.0311
rtibia 39.9541
rfoot -23.5766 10.8697
rtoes 0.0327224
lfemur -29.1173 6.92642 -18.6146
ltibia 66.7736
lfoot -13.2152 2.2768
ltoes -20.2586
223
root 9.46882 16.4389 23.053 4.1468 -2.64788 -3.33448
lowerback 1.38805 2.65089 3.64355
upperback -2.26232 3.70887 2.34418
thorax -3.03233 1.79387 0.229414
lowerneck -9.88848 -2.13362 -2.32837
upperneck 20.3237 -2.62593 0.51027
head 7.94283 -1.37117 0.303627
rclavicle 1.55518e-014 6.75868e-015
rhumerus -34.3973 -11.6793 -79.0208
rradius 31.5946
rwrist -0.391353
rhand -26.1781 -38.0621
rfingers 7.12502
rthumb 0.373684 -68.0416
lclavicle 1.55518e-014 6.75868e-015
lhumerus -35.7368 0.367691 89.6728
lradius 21.7482
lwrist 6.75897
lhand -23.0014 -12.9244
lfingers 7.12502
lthumb 3.4417 17.0276
rfemur -15.7749 2.55811 29.3053
rtibia 39.5021
rfoot -23.9718 11.1622
rtoes -1.60304
lfemur -30.5875 7.1803 -18.5194
ltibia 65.1713
lfoot -14.5117 2.50224
ltoes -19.2578
224
root 9.46799 16.4479 23.2913 4.24926 -2.9889 -3.38533
lowerback 1.31428 2.78507 3.66345
upperback -2.36682 3.88924 2.35729
thorax -3.09497 1.88181 0.226516
lowerneck -9.5107 -2.22803 -2.66976
upperneck 20.1245 -2.7243 0.608998
head 7.81694 -1.43518 0.388634
rclavicle -5.24916e-015 -2.18663e-014
rhumerus -33.6883 -10.1104 -79.8311
rradius 33.8208
rwrist -0.894103
rhand -23.179 -40.3428
rfingers 7.12502
rthumb 3.27025 -70.2975
lclavicle -5.24916e-015 -2.18663e-014
lhumerus -36.7235 1.88216 88.741
lradius 20.0444
lwrist 5.00973
lhand -22.9404 -12.9413
lfingers 7.12502
lthumb 3.50069 17.0097
rfemur -14.755 2.47678 29.3621
rtibia 39.0557
rfoot -24.1177 11.7796
rtoes -0.266233
lfemur -31.7889 7.32555 -18.6417
ltibia 63.0931
lfoot -15.0515 2.90056
ltoes -18.3519
225
root 9.47828 16.4588 23.5422 4.24678 -3.33161 -3.10159
lowerback 1.28748 2.88288 3.52215
upperback -2.48745 4.01514 2.20707
thorax -3.20043 1.94357 0.144121
lowerneck -9.23948 -2.21322 -2.73585
upperneck 20.1657 -2.70488 0.631581
head 7.78257 -1.42984 0.411891
rclavicle 5.93869e-015 1.51076e-014
rhumerus -33.1388 -8.47965 -80.6127
rradius 35.9806
rwrist -1.24068
rhand -20.5407 -42.3459
rfingers 7.12502
rthumb 5.81779 -72.2461
lclavicle 5.93869e-015 1.51076e-014
lhumerus -37.9334 3.12382 87.7099
lradius 18.6766
lwrist 3.59151
lhand -22.5272 -12.7606
lfingers 7.12502
lthumb 3.89971 17.1835
rfemur -13.5209 1.93685 28.9338
rtibia 38.4577
rfoot -24.0259 12.7019
rtoes 0.38562
lfemur -32.435 7.39181 -19.1871
ltibia 60.5712
lfoot -16.0465 2.7495
ltoes -15.8915
226
root 9.49332 16.4769 23.8049 4.39465 -3.69377 -3.04438
lowerback 0.659156 2.93672 3.63108
upperback -2.32782 4.04444 2.08819
thorax -2.66451 1.96382 0.00167456
lowerneck -9.34795 -2.10214 -2.4772
upperneck 20.1219 -2.56382 0.487168
head 7.77914 -1.35656 0.333702
rclavicle 3.68373e-015 -1.78906e-014
rhumerus -32.0138 -7.30426 -81.3887
rradius 37.9073
rwrist -0.558916
rhand -17.9827 -44.5096
rfingers 7.12502
rthumb 8.28703 -74.3271
lclavicle 3.68373e-015 -1.78906e-014
lhumerus -38.766 4.73873 86.3665
lradius 17.3432
lwrist 2.04179
lhand -22.2046 -12.4977
lfingers 7.12502
lthumb 4.21116 17.4404
rfemur -12.2502 1.17809 28.6896
rtibia 37.6012
rfoot -23.9088 13.3323
rtoes -2.12522
lfemur -33.1083 7.47278 -19.4753
ltibia 57.8425
lfoot -17.2126 2.76921
ltoes -14.0741
227
root 9.50553 16.508 24.0612 4.5896 -4.0477 -3.21891
lowerback 0.134737 2.9607 3.84075
upperback -2.15015 4.04217 2.08747
thorax -2.17228 1.96772 -0.0790946
lowerneck -9.79025 -2.00001 -2.11362
upperneck 20.2188 -2.40522 0.139754
head 7.87921 -1.28598 0.168673
rclavicle 7.5942e-015 -5.56597e-015
rhumerus -30.7554 -5.28817 -82.5635
rradius 39.5367
rwrist -3.03108
rhand -19.8713 -42.0474
rfingers 7.12502
rthumb 6.46402 -71.9288
lclavicle 7.5942e-015 -5.56597e-015
lhumerus -39.4904 7.45914 84.3112
lradius 15.7603
lwrist -0.741477
lhand -21.207 -12.1776
lfingers 7.12502
lthumb 5.17444 17.7392
rfemur -10.873 0.683504 28.6847
rtibia 36.46
rfoot -23.2697 14.0992
rtoes -2.76582
lfemur -33.9652 7.44762 -19.3848
ltibia 54.9572
lfoot -17.9416 3.52745
ltoes -15.3486
228
root 9.52288 16.5446 24.2982 4.71885 -4.46465 -3.42845
lowerback 0.21633 3.01544 4.16999
upperback -2.17521 4.12483 2.07199
thorax -2.21843 2.00121 -0.283186
lowerneck -10.0544 -1.88922 -1.82391
upperneck 20.2323 -2.24727 -0.11098
head 7.92274 -1.2128 0.0501766
rclavicle -8.42583e-015 -2.06736e-014
rhumerus -29.9018 -3.15624 -83.5043
rradius 41.5247
rwrist -4.84393
rhand -20.2534 -42.1544
rfingers 7.12502
rthumb 6.09515 -72.0467
lclavicle -8.42583e-015 -2.06736e-014
lhumerus -40.6557 10.7542 81.5648
lradius 14.3399
lwrist -4.766
lhand -20.9909 -12.8628
lfingers 7.12502
lthumb 5.38313 17.0488
rfemur -9.3748 0.360953 28.65
rtibia 35.167
rfoot -22.5929 14.9027
rtoes -2.40737
lfemur -34.755 7.15048 -19.0587
ltibia 51.8571
lfoot -18.4305 3.39315
ltoes -13.4923
229
root 9.5422 16.5759 24.5393 4.98553 -4.80899 -3.5611
lowerback 0.108486 3.14011 4.54229
upperback -2.25147 4.2911 2.01515
thorax -2.20073 2.07572 -0.544563
lowerneck -9.98041 -1.86336 -2.02324
upperneck 19.9888 -2.2095 0.0496921
head 7.8327 -1.19402 0.142056
rclavicle -9.26337e-014 -2.22639e-014
rhumerus -29.2249 -1.33257 -84.0791
rradius 43.6101
rwrist -6.12584
rhand -19.4764 -43.3235
rfingers 7.12502
rthumb 6.84528 -73.1928
lclavicle -9.26337e-014 -2.22639e-014
lhumerus -42.0945 13.2356 79.1271
lradius 13.3722
lwrist -8.28572
lhand -24.4224 -14.8843
lfingers 7.12502
lthumb 2.06942 15.0854
rfemur -8.12159 -0.0792983 28.5065
rtibia 33.9171
rfoot -22.2107 15.399
rtoes -3.99373
lfemur -35.45 6.71449 -18.8211
ltibia 48.5045
lfoot -18.9542 3.23697
ltoes -11.2164
230
root 9.55607 16.5812 24.7876 5.09218 -5.21561 -3.46731
lowerback 0.211088 3.30447 4.62081
upperback -2.40297 4.52262 1.90453
thorax -2.39083 2.18274 -0.715471
lowerneck -9.89389 -1.97508 -2.48914
upperneck 20.042 -2.3374 0.321998
head 7.84618 -1.26422 0.297546
rclavicle -2.83361e-014 8.74653e-015
rhumerus -28.8054 0.33428 -84.5321
rradius 45.6803
rwrist -7.45391
rhand -19.5122 -42.7033
rfingers 7.12502
rthumb 6.81071 -72.5737
lclavicle -2.83361e-014 8.74653e-015
lhumerus -43.8179 14.5745 77.2663
lradius 12.85
lwrist -10.4811
lhand -26.5292 -15.8393
lfingers 7.12502
lthumb 0.0345953 14.1404
rfemur -6.72946 -0.203264 28.1438
rtibia 32.7588
rfoot -21.682 15.9054
rtoes -3.52793
lfemur -35.7122 6.55351 -18.9755
ltibia 44.9223
lfoot -19.2581 4.15182
ltoes -14.5776
